<svg width="1440" height="1030" viewBox="0 0 1440 1030" fill="none" xmlns="http://www.w3.org/2000/svg">
<rect x="-216" y="15" width="2" height="1920" transform="rotate(-90 -216 15)" fill="#C4C4C4" fill-opacity="0.17"/>
<rect x="-216" y="114" width="2" height="1920" transform="rotate(-90 -216 114)" fill="#C4C4C4" fill-opacity="0.17"/>
<rect x="-218" y="213" width="2" height="1920" transform="rotate(-90 -218 213)" fill="#C4C4C4" fill-opacity="0.17"/>
<rect x="-216" y="312" width="2" height="1920" transform="rotate(-90 -216 312)" fill="#C4C4C4" fill-opacity="0.17"/>
<rect x="-216" y="411" width="2" height="1920" transform="rotate(-90 -216 411)" fill="#C4C4C4" fill-opacity="0.17"/>
<rect x="-216" y="510" width="2" height="1920" transform="rotate(-90 -216 510)" fill="#C4C4C4" fill-opacity="0.17"/>
<rect x="-214" y="602" width="2" height="1920" transform="rotate(-90 -214 602)" fill="#C4C4C4" fill-opacity="0.17"/>
<rect x="-214" y="701" width="2" height="1920" transform="rotate(-90 -214 701)" fill="#C4C4C4" fill-opacity="0.17"/>
<rect x="-216" y="800" width="2" height="1920" transform="rotate(-90 -216 800)" fill="#C4C4C4" fill-opacity="0.17"/>
<rect x="-214" y="899" width="2" height="1920" transform="rotate(-90 -214 899)" fill="#C4C4C4" fill-opacity="0.17"/>
<rect x="-214" y="998" width="2" height="1920" transform="rotate(-90 -214 998)" fill="#C4C4C4" fill-opacity="0.17"/>
<rect x="37" y="-34" width="2" height="1080" fill="#C4C4C4" fill-opacity="0.17"/>
<rect x="138" y="-34" width="2" height="1080" fill="#C4C4C4" fill-opacity="0.17"/>
<path d="M239 -34H241V1046H239V-34Z" fill="#C4C4C4" fill-opacity="0.17"/>
<rect x="340" y="-34" width="2" height="1080" fill="#C4C4C4" fill-opacity="0.17"/>
<rect x="441" y="-34" width="2" height="1080" fill="#C4C4C4" fill-opacity="0.17"/>
<path d="M542 -34H544V1046H542V-34Z" fill="#C4C4C4" fill-opacity="0.17"/>
<rect x="643" y="-34" width="2" height="1080" fill="#C4C4C4" fill-opacity="0.17"/>
<rect x="744" y="-34" width="2" height="1080" fill="#C4C4C4" fill-opacity="0.17"/>
<path d="M845 -34H847V1046H845V-34Z" fill="#C4C4C4" fill-opacity="0.17"/>
<rect x="946" y="-34" width="2" height="1080" fill="#C4C4C4" fill-opacity="0.17"/>
<rect x="1047" y="-34" width="2" height="1080" fill="#C4C4C4" fill-opacity="0.17"/>
<path d="M1148 -34H1150V1046H1148V-34Z" fill="#C4C4C4" fill-opacity="0.17"/>
<rect x="1249" y="-34" width="2" height="1080" fill="#C4C4C4" fill-opacity="0.17"/>
<rect x="1350" y="-34" width="2" height="1080" fill="#C4C4C4" fill-opacity="0.17"/>
</svg>
